mastitorrents.com
 
http://mastitorrents.com/forums/index.php

General
Complete name : Desi Boyz (2011) - Xvid - 1CD - S-CAM Rip - AC3 - [TDT].avi
IMDB : http://www.imdb.com/title/tt1985981/
Format : AVI
Format/Info : Audio Video Interleave
File size : 680 MiB
Duration : 1h 53mn
Overall bit rate : 837 Kbps
Writing application : VirtualDubMod 1.5.10.3 | VirtualDub-Fr.org || (build 2550/release)
Writing library : VirtualDubMod build 2550/release
Source : S-cam @ Team ICTV .
Ripper : KINGFISHER [~TDT~].


Video
ID : 0
Format : MPEG-4 Visual
Format profile : Advanced Simple@L5
Format settings, BVOP : 2
Format settings, QPel : No
Format settings, GMC : No warppoints
Format settings, Matrix : Default (H.263)
Muxing mode : Packed bitstream
Codec ID : XVID
Codec ID/Hint : XviD
Duration : 1h 53mn
Bit rate : 700 Kbps
Width : 624 pixels
Height : 272 pixels
Display aspect ratio : 2.25:1
Frame rate : 23.976 fps
Color space : YUV
Chroma subsampling : 4:2:0
Bit depth : 8 bits
Scan type : Progressive
Compression mode : Lossy
Bits/(Pixel*Frame) : 0.172
Stream size : 569 MiB (84%)
Writing library : XviD 1.2.1 (UTC 2008-12-04)

Audio
ID : 1
Format : AC-3
Format/Info : Audio Coding 3
Mode extension : CM (complete main)
Codec ID : 2000
Duration : 1h 53mn
Bit rate mode : Constant
Bit rate : 128 Kbps
Channel(s) : 2 channels
Channel positions : Front: L R
Sampling rate : 48.0 KHz
Bit depth : 16 bits
Compression mode : Lossy
Stream size : 104 MiB (15%)
Alignment : Split accross interleaves
Interleave, duration : 42 ms (1.00 video frame)
Interleave, preload duration : 500 ms